<svg xmlns="http://www.w3.org/2000/svg" width="128.311" height="90.177" viewBox="0 0 128.311 90.177">
  <g id="calendar-2_copy_5" data-name="calendar-2 copy 5" transform="translate(0.938 1.083)">
    <path id="Path" d="M16.471,0,0,87.843" transform="translate(22.286 0.084)" fill="none" stroke="#404eff" stroke-linecap="round" stroke-linejoin="round" stroke-miterlimit="10" stroke-width="2"/>
    <path id="Path-2" data-name="Path" d="M16.471,0,0,87.843" transform="translate(45.62 0.084)" fill="none" stroke="#404eff" stroke-linecap="round" stroke-linejoin="round" stroke-miterlimit="10" stroke-width="2"/>
    <path id="Path-3" data-name="Path" d="M16.471,0,0,87.843" transform="translate(68.953 0.084)" fill="none" stroke="#404eff" stroke-linecap="round" stroke-linejoin="round" stroke-miterlimit="10" stroke-width="2"/>
    <path id="Path-4" data-name="Path" d="M87.652,87.843a5.49,5.49,0,0,0,5.4-4.48L107.461,6.5a5.49,5.49,0,0,0-5.4-6.5H19.9a5.49,5.49,0,0,0-5.4,4.475L.095,81.337a5.49,5.49,0,0,0,5.4,6.506Z" transform="translate(0.077 0.078)" fill="none" stroke="#404eff" stroke-linecap="round" stroke-linejoin="round" stroke-miterlimit="10" stroke-width="2"/>
    <path id="Path-5" data-name="Path" d="M19.765,0,38.47,76.8a5.49,5.49,0,0,1-5.336,6.775H0" transform="translate(87.729 4.344)" fill="none" stroke="#404eff" stroke-linecap="round" stroke-linejoin="round" stroke-miterlimit="10" stroke-width="2"/>
    <path id="Path-6" data-name="Path" d="M0,2.745H93.333" transform="translate(11.306 19.3)" fill="none" stroke="#404eff" stroke-linecap="round" stroke-linejoin="round" stroke-miterlimit="10" stroke-width="2"/>
    <path id="Path-7" data-name="Path" d="M0,2.745H93.333" transform="translate(7.188 41.26)" fill="none" stroke="#404eff" stroke-linecap="round" stroke-linejoin="round" stroke-miterlimit="10" stroke-width="2"/>
    <path id="Path-8" data-name="Path" d="M0,2.745H93.328" transform="translate(3.082 63.221)" fill="none" stroke="#404eff" stroke-linecap="round" stroke-linejoin="round" stroke-miterlimit="10" stroke-width="2"/>
  </g>
</svg>
