<svg xmlns="http://www.w3.org/2000/svg" width="106.234" height="106.234" viewBox="0 0 106.234 106.234">
  <g id="phone-selfie-front_copy_5" data-name="phone-selfie-front copy 5" transform="translate(0.91 0.91)">
    <path id="Path" d="M58.681,2.257H0" transform="translate(27.174 83.597)" fill="none" stroke="#ffcec7" stroke-linecap="round" stroke-linejoin="round" stroke-miterlimit="10" stroke-width="2"/>
    <path id="Path-2" data-name="Path" d="M2.257,1.128h0A1.128,1.128,0,0,1,3.385,2.257h0A1.128,1.128,0,0,1,2.257,3.385h0A1.128,1.128,0,0,1,1.128,2.257h0A1.128,1.128,0,0,1,2.257,1.128" transform="translate(54.257 92.625)" fill="none" stroke="#ffcec7" stroke-linecap="round" stroke-linejoin="round" stroke-miterlimit="10" stroke-width="2"/>
    <path id="Path-3" data-name="Path" d="M58.681,56.812V9.028A9.028,9.028,0,0,0,49.653,0H9.028A9.028,9.028,0,0,0,0,9.028V85.764a9.028,9.028,0,0,0,9.028,9.028H49.653a9.028,9.028,0,0,0,9.028-9.028V76.736" transform="translate(27.174 9.118)" fill="none" stroke="#ffcec7" stroke-linecap="round" stroke-linejoin="round" stroke-miterlimit="10" stroke-width="2"/>
    <path id="Path-4" data-name="Path" d="M14.421,8.038,7.65,1.267A4.514,4.514,0,0,0,1.267,7.65l7.705,7.7v9.42a10.9,10.9,0,0,0,3.191,7.705l8.093,8.093" transform="translate(76.882 63.34)" fill="none" stroke="#ffcec7" stroke-linecap="round" stroke-linejoin="round" stroke-miterlimit="10" stroke-width="2"/>
    <path id="Path-5" data-name="Path" d="M0,0,10.35,10.35a10.9,10.9,0,0,1,3.191,7.705v9.028a10.9,10.9,0,0,0,3.191,7.705l1.323,1.323" transform="translate(85.854 52)" fill="none" stroke="#ffcec7" stroke-linecap="round" stroke-linejoin="round" stroke-miterlimit="10" stroke-width="2"/>
    <path id="Path-6" data-name="Path" d="M0,2.257H4.514" transform="translate(0.09 6.861)" fill="none" stroke="#ffcec7" stroke-linecap="round" stroke-linejoin="round" stroke-miterlimit="10" stroke-width="2"/>
    <path id="Path-7" data-name="Path" d="M2.257,4.514V0" transform="translate(6.861 0.09)" fill="none" stroke="#ffcec7" stroke-linecap="round" stroke-linejoin="round" stroke-miterlimit="10" stroke-width="2"/>
    <path id="Path-8" data-name="Path" d="M4.514,2.257H0" transform="translate(13.632 6.861)" fill="none" stroke="#ffcec7" stroke-linecap="round" stroke-linejoin="round" stroke-miterlimit="10" stroke-width="2"/>
    <path id="Path-9" data-name="Path" d="M2.257,0V4.514" transform="translate(6.861 13.632)" fill="none" stroke="#ffcec7" stroke-linecap="round" stroke-linejoin="round" stroke-miterlimit="10" stroke-width="2"/>
  </g>
</svg>
