<svg xmlns="http://www.w3.org/2000/svg" width="96.091" height="93.721" viewBox="0 0 96.091 93.721">
  <g id="money-wallet-open_copy_5" data-name="money-wallet-open copy 5" transform="translate(1 0.798)">
    <path id="Path" d="M3.273,3.9,57.657,17.476A16.576,16.576,0,0,1,69.545,32.727V81.818A9.295,9.295,0,0,1,57.6,91.276L11.962,80.542A16.3,16.3,0,0,1,0,65.455V12.273A12.31,12.31,0,0,1,12.273,0H81.818A12.305,12.305,0,0,1,94.091,12.273v45A12.305,12.305,0,0,1,81.818,69.545H69.545" transform="translate(0 0.202)" fill="none" stroke="#ed7d7b" stroke-linecap="round" stroke-linejoin="round" stroke-miterlimit="10" stroke-width="2"/>
    <path id="Path-2" data-name="Path" d="M0,2.045H40.909" transform="translate(36.835 10.43)" fill="none" stroke="#ed7d7b" stroke-linecap="round" stroke-linejoin="round" stroke-miterlimit="10" stroke-width="2"/>
    <circle id="Oval" cx="8.182" cy="8.182" r="8.182" stroke-width="2" transform="translate(42.971 45.202)" stroke="#ed7d7b" stroke-linecap="round" stroke-linejoin="round" stroke-miterlimit="10" fill="none"/>
    <path id="Path-3" data-name="Path" d="M0,2.045H8.182" transform="translate(69.562 30.884)" fill="none" stroke="#ed7d7b" stroke-linecap="round" stroke-linejoin="round" stroke-miterlimit="10" stroke-width="2"/>
  </g>
</svg>
