<svg width="910" height="220" viewBox="0 0 910 220" fill="none" xmlns="http://www.w3.org/2000/svg">
<g clip-path="url(#clip0)">
<path d="M1415 -430H-505V650H1415V-430Z" fill="#424FFF"/>
<path d="M299.065 117.932L271.639 43.9312H268.429L236.599 127.654H267.691L261.536 149.319H228.841L209.049 203.351H184.439V199.606L256.66 16.1143H283.408L323.431 117.8L299.065 117.932Z" fill="#FFD1C7"/>
<path d="M355.629 199.606V203.351H331.02L310.424 149.319H228.842L209.048 203.351H184.439V199.606L256.66 16.1143H283.408L355.629 199.606ZM271.639 43.9312H268.429L236.599 127.654H302.667L271.639 43.9312Z" fill="#FFD1C7"/>
<path d="M276.764 57.9868H299.924L356.988 203.352H331.021L276.764 57.9868Z" fill="#FFD1C8"/>
<path d="M305.531 127.455L313.287 149.12L228.842 149.319L236.6 127.653L305.531 127.455Z" fill="#FFD1C8"/>
<path d="M484.307 16.1143H506.759V20.3932L414.744 203.351H389.334V199.606L484.307 16.1143Z" fill="#FFD1C8"/>
<path d="M401.638 128.457L345.467 20.394V16.1143H371.145L428.954 128.457H401.638Z" fill="#FFD1C8"/>
<path d="M652.27 180.08V203.351H526.553V16.1143H551.162V180.08H652.27Z" fill="#FFD1C7"/>
<path d="M745.426 198.755C699.592 198.755 661.508 162.072 661.508 110.001C661.508 57.9292 699.592 21.709 745.426 21.709" stroke="#FFD0C7" stroke-width="28.63" stroke-miterlimit="10"/>
<path d="M745.427 21.7085C791.261 21.7085 828.417 61.2384 828.417 110.001C828.417 158.763 791.261 198.755 745.427 198.755L744.125 198.719" stroke="#FFD0C7" stroke-width="28.63" stroke-miterlimit="10"/>
<path d="M677.888 87.3659C676.007 94.4334 675.001 102.024 675.001 110C675.001 154.671 705.766 186.229 744.817 186.229V210.303C692.923 210.303 649.594 168.577 649.594 110C649.594 99.5868 650.935 89.7299 653.438 80.5519L677.888 87.3659ZM800.916 156.7C809.554 144.119 814.633 128.143 814.633 110C814.633 65.8688 783.868 33.7705 744.817 33.7705V9.69678C796.171 9.69678 840.04 50.8831 840.04 110C840.04 133.64 832.899 154.54 820.998 171.055L800.916 156.7Z" fill="#FFD1C7"/>
<path d="M879 180.25H852.75V206H879V180.25Z" fill="#414FFF"/>
<circle cx="861" cy="180" r="20" fill="#FFD1C7"/>
<circle cx="57" cy="186" r="20" fill="#424FFF"/>
<path d="M33.7656 210V5.25H91.5625C109.375 5.25 125.125 9.1875 138.812 17.0625C152.5 24.9375 163.047 36.1406 170.453 50.6719C177.953 65.2031 181.75 81.8906 181.844 100.734V113.812C181.844 133.125 178.094 150.047 170.594 164.578C163.188 179.109 152.547 190.266 138.672 198.047C124.891 205.828 108.812 209.812 90.4375 210H33.7656ZM60.7656 27.4688V187.922H89.1719C109.984 187.922 126.156 181.453 137.688 168.516C149.312 155.578 155.125 137.156 155.125 113.25V101.297C155.125 78.0469 149.641 60 138.672 47.1562C127.797 34.2188 112.328 27.6562 92.2656 27.4688H60.7656Z" fill="#FFD1C7"/>
<rect x="4" y="187.698" width="42" height="40" transform="rotate(-45 4 187.698)" fill="#424FFF"/>
</g>
<defs>
<clipPath id="clip0">
<rect width="910" height="220" fill="white"/>
</clipPath>
</defs>
</svg>
